<?xml version="1.0" encoding="utf-8"?>
<!-- Generator: Adobe Illustrator 21.0.0, SVG Export Plug-In . SVG Version: 6.00 Build 0)  -->
<svg version="1.1" id="Layer_1" xmlns="http://www.w3.org/2000/svg" xmlns:xlink="http://www.w3.org/1999/xlink" x="0px" y="0px"
	 viewBox="0 0 432 432" style="enable-background:new 0 0 432 432;" xml:space="preserve">
<g>
	<path d="M366,174.1c-3-39.2-29.7-45.2-45.4-45.2l-3.8,0.1c0.7-2.1,1.4-4.4,2-6.8c2.4-1.3,7.7-4.7,9.3-10.6c0.9-3.2,0.6-6.5-0.8-10
		c-0.5-1.3-1.3-2.6-2.1-4c-0.1-0.1-0.1-0.2-0.2-0.3c0.7-2.9,1.8-9.7-1.6-14.3c-1.4-1.9-4.1-4.1-9.1-4.1c-0.2-3.7-1.1-10.1-5.3-14.7
		c-3.9-4.3-9.7-6-17.2-5c-1.8-2.5-6.1-6.9-12.8-6.9c-2.5,0-5,0.6-7.6,1.9c0.3-5.2-0.3-12.7-4.8-17.9c0,0-0.1-0.1-0.1-0.1
		c-0.5-0.5-12-12.1-28.5-12.1c-9.8,0-19.1,4.1-27.8,12.2c-2.3-1.3-6.5-3.2-11.5-3.2c-5.8,0-11,2.6-15.4,7.4c-1.8-0.8-4.6-1.8-8-1.8
		c-3.7,0-9.1,1.2-14.4,6.6c-2.5-3-7.1-7.2-13-7.2c-4.9,0-9.5,2.9-13.8,8.6c-0.6,0-1.4-0.1-2.3-0.1c-5.3,0-15.1,1.1-21.3,8.2
		c-4.3,5-6.1,11.9-5.3,20.6c-3.7,2.3-12.8,8.9-14.9,18.2c-1,4.6-0.3,9.2,2.3,13.6c-2.5,2.4-6.8,7.1-7.3,13.1
		c-0.4,3.8,0.8,7.5,3.4,10.9c-1.1,2.3-2.6,6.6-1.6,11.7c1.1,5.4,4.8,10.2,10.8,14.2c0.9,3.3,4.1,12.3,12.5,12.3c0.3,0,0.6,0,0.9,0
		c-0.3,6.2,0.3,18.4,9.2,23.5l-0.3,126.7c0,0.3,0,0.5,0.1,0.8c-1,0.7-1.7,1.6-2,2.8c-9.2,30.2-3.4,39.9-1.3,42.2
		c0.3,0.4,0.7,0.7,1.1,0.9c28.4,18.4,77.9,20.3,97.9,20.3c4.3,0,6.9-0.1,7-0.1c68.6-2.1,92.7-24.4,93.7-25.3
		c0.1-0.1,0.3-0.3,0.4-0.4c11.9-14,0.7-38.6-1.7-43.4c-0.3-0.6-0.7-1.2-1.2-1.6c0.1-0.4,0.1-0.9,0.1-1.4l-0.4-8.3
		c17.3-0.2,31-5.3,40.8-15.2c14.3-14.4,15-33.9,15-36.6C371.4,234.4,366.3,177,366,174.1z M117,166.4c0.1-0.9-0.2-1.9-0.9-2.5
		c-0.5-0.4-1.1-0.6-1.7-0.6l0.2,0c-0.3,0-0.6,0.1-1.1,0.2c-1,0.4-2,0.6-2.9,0.6c-5.8,0-7.6-9.1-7.6-9.1c-0.1-0.7-0.6-1.4-1.2-1.7
		c-5.3-3.3-8.5-7.1-9.4-11.3c-1.1-5.2,1.7-9.5,1.7-9.5c0.7-1,0.6-2.4-0.2-3.3c-2.5-2.7-3.6-5.4-3.3-8.3c0.6-6.1,7.1-10.9,7.1-11
		c1.2-0.9,1.4-2.5,0.6-3.7c-2.8-3.8-3.7-7.5-2.8-11.4c2.1-9.1,13.7-15.6,13.8-15.7c1-0.5,1.5-1.6,1.4-2.7c-1.1-8,0.2-14.1,3.8-18.2
		c4.8-5.5,13-6.4,17.4-6.4c1.9,0,3.2,0.2,3.2,0.2c1,0.1,2-0.3,2.5-1.1c3.4-5,6.9-7.6,10.3-7.6c5.9,0,10.5,7.4,10.5,7.5
		c0.4,0.7,1.2,1.2,2.1,1.3c0.9,0.1,1.7-0.3,2.2-1c3.8-4.7,8-7.1,12.5-7.1c4.1,0,7.1,2,7.1,2c1.2,0.8,2.7,0.6,3.6-0.5
		c3.7-4.7,7.9-7.1,12.7-7.1c5.7,0,10.2,3.4,10.3,3.4c1.1,0.8,2.5,0.7,3.5-0.2c8.1-8.1,16.7-12.1,25.6-12.1
		c13.7,0,23.9,9.7,24.6,10.4c5.5,6.4,2.9,18.8,2.9,18.9c-0.2,1.1,0.2,2.2,1.2,2.8c0.9,0.6,2.1,0.5,3-0.1c3.3-2.5,6.4-3.8,9.3-3.8
		c5.9,0,9.1,5.6,9.2,5.8c0.5,1,1.7,1.5,2.8,1.3c1.7-0.3,3.2-0.5,4.7-0.5c4.1,0,7.2,1.2,9.4,3.6c4.6,5,3.9,13.6,3.9,13.7
		c-0.1,0.8,0.2,1.6,0.8,2.1c0.6,0.6,1.4,0.8,2.2,0.7c2.8-0.4,4.8-0.1,6.2,0.9c0.4,0.3,0.7,0.6,1,0.9c1.6,2.2,1.4,5.9,1,8.6
		c-0.2,1-0.4,1.8-0.5,2.3c-0.2,0.8-0.1,1.7,0.4,2.3c0.8,1.1,1.4,2.1,1.9,3.1c1.4,2.7,1.8,5.3,1.1,7.5c-0.9,3.3-3.8,5.6-5.7,6.8
		c-1,0.6-1.8,1-1.8,1c-0.8,0.3-1.4,1-1.6,1.8c-2.7,11.7-8.3,25.6-19.4,25.6c-7.4,0-14.1-5.9-14.1-5.9c-0.7-0.7-1.8-0.9-2.7-0.5
		c-0.9,0.4-1.6,1.2-1.7,2.2c-1,11.5-7.2,11.5-9.2,11.5h0c-5.1,0-10.5-3.1-10.5-3.1c-0.6-0.4-1.3-0.5-2-0.3c-0.7,0.2-1.3,0.6-1.6,1.3
		c-1.8,3.2-4.4,4.8-8.1,4.8c-5.9,0-12.1-3.9-12.2-3.9c-0.7-0.4-1.5-0.5-2.3-0.3c-0.8,0.3-1.4,0.8-1.6,1.6
		c-3.6,9.8-10.6,14.8-21,14.8c-4.9,0-8.7-1.2-8.7-1.2c-1-0.3-2.2,0-2.9,0.9c-0.7,0.9-0.8,2.1-0.2,3c2.9,4.8,3.8,9.7,2.5,14.6
		c-2.7,10.9-14.8,18.2-15,18.3c-0.7,0.4-1.2,1.1-1.3,1.9c-3.7,27.1-21.9,27.9-24,27.9c-0.1,0-0.3,0-0.5,0c-1.1,0.2-2.2,0.2-3.2,0.2
		c-23.3,0-26-40.9-26-41.3c-0.1-1.2-0.9-2.1-2-2.4C114,186.5,117,166.6,117,166.4z M308.9,314.7
		C308.9,314.7,308.9,314.8,308.9,314.7c-0.9,0.4-1.7,0.9-2.3,1.6c-3.7,4.2-11,10.3-24.6,15.6c-16.4,6.4-37.9,9.9-63.6,10.5
		c-0.1,0-0.1,0-0.2,0c-0.3,0-3.5,0.2-8.3,0.2c-13.7,0-47.9-1.3-70.2-13.1c-4.7-2.5-8.7-5.4-11.8-8.6c-0.7-0.7-1.5-1.1-2.3-1.4
		l0.2-110.7c1.9,7,5,14.9,10,20.7l1,68c0.1,9.7,7.7,20,16.8,23c4.3,1.4,8.8,2.5,13.2,3.5c37.2,8.9,75.1,7.5,111.2-5.4
		c9-3.2,16.3-13.8,16.1-23.4l0,0l-1.3-86.1c-0.1-9.7-1.2-25.5-1.4-35.2l-1.3-23.8c1.4,0.3,2.8,0.5,4.2,0.5c2.1,0,4.4-0.4,6.8-1.3
		L308.9,314.7z M307.9,176.9l1.5-0.3l1.2-1.4c7.4-8.6,11.9-9.9,14-9.9c4.7,0,7.1,7.3,7.2,7.4l0.2,0.7l0.4,0.6
		c0.9,1.3,3.8,8.2,4.8,39.2c0.5,16,0.2,31,0.2,33c-2.6,22.7-16.2,27-25,27.4L307.9,176.9z M313,357.3c0,0-22.8,21.8-90.2,23.9
		c0,0-2.5,0.1-6.8,0.1c-18,0-67.5-1.7-95-19.5c0,0-6.6-7.5,2.4-37.2l0.7,0c3.6,3.7,8.1,6.9,13.1,9.5c22.9,12.1,56.9,13.7,72.7,13.7
		c4.9,0,8-0.1,8.6-0.2c60.2-1.2,83.6-18.2,92-27.8l0-0.1C311.8,322,323,345.6,313,357.3z M313.6,301l-1-22c8.5-0.4,27-4.5,30.1-32.3
		c0,0,1.5-64.2-5.9-75.4c0,0-3.4-11.1-12.2-11.1c-4.3,0-9.9,2.7-17,10.6l-1.1-24.6c2.9-2.5,5.8-6.2,8.2-11.7l5.9-0.2
		c16.7,0,37.6,6.9,40.2,40.4c0,0,5.4,59.9,3.7,79.5C364.5,254.2,364.9,300.5,313.6,301z"/>
</g>
</svg>
